<svg width="512" height="512" viewBox="0 0 512 512" fill="none" xmlns="http://www.w3.org/2000/svg">
  <rect width="512" height="512" fill="#D9D9D9" style="mix-blend-mode:luminosity" />
  <rect x="32" y="148" width="448" height="216" rx="24" fill="#8E8E8E" />
  <path
    d="M410.733 288.534C406.311 297.378 393.689 297.378 389.267 288.534L368.683 247.367C364.694 239.388 370.496 230 379.416 230L420.584 230C429.504 230 435.306 239.388 431.317 247.367L410.733 288.534Z"
    fill="#D9D9D9" />
  <g opacity="0.8">
    <path
      d="M280.375 307L297.557 202.273H313.92L296.739 307H280.375ZM233.483 281.023L236.193 264.659H318.011L315.301 281.023H233.483ZM243.557 307L260.739 202.273H277.102L259.92 307H243.557ZM239.466 244.614L242.227 228.25H324.045L321.284 244.614H239.466Z"
      fill="#D9D9D9" style="mix-blend-mode:luminosity" />
  </g>
  <g opacity="0.8">
    <path
      d="M142.682 312.818C133.015 312.818 124.409 311.5 116.864 308.864C109.318 306.258 102.939 302.424 97.7273 297.364C92.5152 292.333 88.5455 286.182 85.8182 278.909C83.0909 271.636 81.7273 263.364 81.7273 254.091C81.7273 244.939 83.0909 236.636 85.8182 229.182C88.5758 221.727 92.5909 215.333 97.8636 210C103.136 204.636 109.576 200.515 117.182 197.636C124.818 194.758 133.515 193.318 143.273 193.318C152.303 193.318 160.364 194.636 167.455 197.273C174.576 199.909 180.606 203.667 185.545 208.545C190.515 213.394 194.288 219.167 196.864 225.864C199.47 232.53 200.758 239.909 200.727 248C200.758 253.576 200.273 258.697 199.273 263.364C198.273 268.03 196.697 272.106 194.545 275.591C192.424 279.045 189.636 281.788 186.182 283.818C182.727 285.818 178.545 286.955 173.636 287.227C170.121 287.5 167.273 287.242 165.091 286.455C162.909 285.667 161.242 284.5 160.091 282.955C158.97 281.379 158.242 279.545 157.909 277.455H157.364C156.636 279.273 155.212 280.924 153.091 282.409C150.97 283.864 148.379 285 145.318 285.818C142.288 286.606 139.061 286.894 135.636 286.682C132.061 286.47 128.667 285.636 125.455 284.182C122.273 282.727 119.439 280.621 116.955 277.864C114.5 275.106 112.561 271.697 111.136 267.636C109.742 263.576 109.03 258.879 109 253.545C109.03 248.273 109.773 243.682 111.227 239.773C112.712 235.864 114.667 232.576 117.091 229.909C119.545 227.242 122.273 225.152 125.273 223.636C128.273 222.121 131.288 221.152 134.318 220.727C137.742 220.212 140.985 220.212 144.045 220.727C147.106 221.242 149.682 222.076 151.773 223.227C153.894 224.379 155.212 225.621 155.727 226.955H156.364V221.864H170.591V266.227C170.621 268.318 171.091 269.939 172 271.091C172.909 272.242 174.136 272.818 175.682 272.818C177.773 272.818 179.515 271.894 180.909 270.045C182.333 268.197 183.394 265.364 184.091 261.545C184.818 257.727 185.182 252.864 185.182 246.955C185.182 241.258 184.424 236.258 182.909 231.955C181.424 227.621 179.333 223.939 176.636 220.909C173.97 217.848 170.864 215.364 167.318 213.455C163.773 211.545 159.924 210.152 155.773 209.273C151.652 208.394 147.409 207.955 143.045 207.955C135.5 207.955 128.909 209.106 123.273 211.409C117.636 213.682 112.939 216.879 109.182 221C105.424 225.121 102.606 229.955 100.727 235.5C98.8788 241.015 97.9394 247.03 97.9091 253.545C97.9394 260.727 98.9394 267.091 100.909 272.636C102.909 278.152 105.848 282.788 109.727 286.545C113.606 290.303 118.394 293.152 124.091 295.091C129.788 297.03 136.333 298 143.727 298C147.212 298 150.621 297.742 153.955 297.227C157.288 296.742 160.303 296.136 163 295.409C165.697 294.712 167.864 294.03 169.5 293.364L174 306.545C172.091 307.636 169.5 308.652 166.227 309.591C162.985 310.561 159.318 311.333 155.227 311.909C151.167 312.515 146.985 312.818 142.682 312.818ZM140.591 271.727C144.288 271.727 147.227 271.015 149.409 269.591C151.621 268.167 153.197 266.061 154.136 263.273C155.106 260.455 155.561 256.985 155.5 252.864C155.47 249.227 155 246.152 154.091 243.636C153.212 241.091 151.682 239.167 149.5 237.864C147.348 236.53 144.348 235.864 140.5 235.864C137.136 235.864 134.273 236.576 131.909 238C129.576 239.424 127.788 241.424 126.545 244C125.333 246.545 124.712 249.545 124.682 253C124.712 256.212 125.227 259.258 126.227 262.136C127.227 264.985 128.879 267.303 131.182 269.091C133.485 270.848 136.621 271.727 140.591 271.727Z"
      fill="#D9D9D9" style="mix-blend-mode:luminosity" />
  </g>
</svg>
  